<?xml version="1.0" encoding="iso-8859-1"?>
<!-- Uploaded to: SVG Repo, www.svgrepo.com, Generator: SVG Repo Mixer Tools -->
<svg version="1.1" id="Layer_1" xmlns="http://www.w3.org/2000/svg" xmlns:xlink="http://www.w3.org/1999/xlink" 
	 viewBox="0 0 323 323" xml:space="preserve">
<g id="XMLID_1009_">
	<g id="XMLID_1010_">
		<circle id="XMLID_1011_" style="fill:#9FCBA5;" cx="121.224" cy="43.879" r="35.345"/>
		<circle id="XMLID_1012_" style="fill:#9FCBA5;" cx="72.817" cy="38.994" r="38.994"/>
		<circle id="XMLID_1013_" style="fill:#9FCBA5;" cx="154.264" cy="72.226" r="28.347"/>
		<circle id="XMLID_1014_" style="fill:#9FCBA5;" cx="38.241" cy="73.571" r="27.002"/>
		<rect id="XMLID_39_" x="38.241" y="58.395" style="fill:#9FCBA5;" width="116.023" height="42.178"/>
	</g>
	<g id="XMLID_1015_">
		<g id="XMLID_1016_">
			<rect id="XMLID_37_" x="212.895" y="215.338" style="fill:#9FCBA5;" width="26.946" height="95.317"/>
			<g id="XMLID_1019_">
				<path id="XMLID_1018_" style="fill:#2B7B57;" d="M308.741,197.065L248.835,74.969c-9.161-18.671-35.776-18.671-44.937,0
					l-59.906,122.096c-8.159,16.629,3.946,36.051,22.468,36.051h119.812C304.796,233.116,316.9,213.694,308.741,197.065z"/>
			</g>
			<rect id="XMLID_33_" x="122.145" y="191.058" style="fill:#9FCBA5;" width="26.946" height="119.596"/>
			<g id="XMLID_1020_">
				<path id="XMLID_1021_" style="fill:#49B86E;" d="M181.979,157.214c2.114-5.515,3.283-11.498,3.283-17.756
					c0-27.417-22.226-49.643-49.643-49.643s-49.643,22.226-49.643,49.643c0,6.259,1.17,12.241,3.283,17.756
					c-25.549,2.034-45.653,23.397-45.653,49.469c0,27.417,22.226,49.643,49.643,49.643c17.935,0,33.646-9.513,42.369-23.766
					c8.724,14.253,24.434,23.766,42.369,23.766c27.417,0,49.643-22.226,49.643-49.643
					C227.63,180.611,207.527,159.248,181.979,157.214z"/>
			</g>
		</g>
		<g id="XMLID_1022_">
			<path id="XMLID_9_" style="fill:#2B7B57;" d="M299.414,323H62.26c-6.819,0-12.346-5.528-12.346-12.346l0,0
				c0-6.819,5.528-12.346,12.346-12.346h237.154c6.819,0,12.346,5.528,12.346,12.346l0,0C311.76,317.473,306.233,323,299.414,323z"
				/>
		</g>
	</g>
</g>
</svg>